<svg xmlns="http://www.w3.org/2000/svg" viewBox="0 0 100 100">
  <defs>
    <!-- Rich walnut wood gradient -->
    <linearGradient id="walnut" x1="0%" y1="0%" x2="100%" y2="100%">
      <stop offset="0%" stop-color="#6B4423"/>
      <stop offset="30%" stop-color="#8B5A2B"/>
      <stop offset="50%" stop-color="#A0693D"/>
      <stop offset="70%" stop-color="#8B5A2B"/>
      <stop offset="100%" stop-color="#5D3A1A"/>
    </linearGradient>
    <!-- Groove shadow -->
    <linearGradient id="groove" x1="0%" y1="0%" x2="100%" y2="100%">
      <stop offset="0%" stop-color="#3D2410"/>
      <stop offset="100%" stop-color="#2A1808"/>
    </linearGradient>
    <!-- Highlight for depth -->
    <linearGradient id="highlight" x1="0%" y1="0%" x2="100%" y2="100%">
      <stop offset="0%" stop-color="#C4956A" stop-opacity="0.6"/>
      <stop offset="100%" stop-color="#8B5A2B" stop-opacity="0"/>
    </linearGradient>
  </defs>
  
  <!-- Main wooden board -->
  <rect x="4" y="4" width="92" height="92" rx="10" fill="url(#walnut)"/>
  
  <!-- Wood grain lines -->
  <g opacity="0.25" stroke="#4A2C14" fill="none" stroke-width="1">
    <path d="M10 20 Q50 18 90 22"/>
    <path d="M10 40 Q55 36 90 42"/>
    <path d="M10 60 Q45 58 90 62"/>
    <path d="M10 80 Q50 78 90 82"/>
  </g>
  
  <!-- Carved grid grooves - vertical -->
  <rect x="32" y="10" width="6" height="80" rx="2" fill="url(#groove)"/>
  <rect x="62" y="10" width="6" height="80" rx="2" fill="url(#groove)"/>
  
  <!-- Carved grid grooves - horizontal -->
  <rect x="10" y="32" width="80" height="6" rx="2" fill="url(#groove)"/>
  <rect x="10" y="62" width="80" height="6" rx="2" fill="url(#groove)"/>
  
  <!-- Top-left light reflection -->
  <rect x="4" y="4" width="92" height="92" rx="10" fill="url(#highlight)"/>
  
  <!-- Beveled edge -->
  <rect x="4" y="4" width="92" height="92" rx="10" fill="none" stroke="#3D2410" stroke-width="3"/>
  <rect x="5" y="5" width="90" height="90" rx="9" fill="none" stroke="#C4956A" stroke-width="1" opacity="0.4"/>
</svg>
